<svg version="1.1" id="Layer_1" xmlns="http://www.w3.org/2000/svg" xmlns:xlink="http://www.w3.org/1999/xlink" x="0px" y="0px"
	 width="100%" viewBox="0 0 2138 2138" enable-background="new 0 0 2138 2138" xml:space="preserve">
<rect x="-2" y="-2" width="2142" height="2142" fill="#0B1220"/>
<path fill="#0B1220" opacity="1.000000" stroke="none" 
	d="
M2137.571777,5.229786 
	C2138.233154,10.505460 2138.015137,15.162492 2138.014893,19.819527 
	C2137.999756,721.216675 2138.000732,1422.613892 2137.998535,2124.010986 
	C2137.998535,2128.009277 2137.969238,2132.007568 2137.820801,2136.924805 
	C2134.689941,2137.895752 2131.691895,2137.994141 2128.694092,2137.994141 
	C1423.107910,2138.000977 717.521851,2138.000732 11.935692,2138.000000 
	C10.602746,2138.000000 9.269800,2137.988525 7.006315,2137.918945 
	C5.975994,2133.862305 5.788861,2129.869629 5.788787,2125.876709 
	C5.775921,1423.333984 5.776461,720.791138 5.776431,18.248360 
	C5.776430,13.951938 5.776434,9.655515 5.776434,4.442484 
	C9.730669,4.442484 12.953137,4.442484 16.175606,4.442484 
	C720.384827,4.442495 1424.593994,4.442319 2128.803223,4.449466 
	C2131.467041,4.449493 2134.130615,4.554936 2137.571777,5.229786 
M1072.691528,1975.511841 
	C1077.673828,1972.838867 1082.775024,1970.364258 1087.619873,1967.462036 
	C1135.066040,1939.041382 1182.483887,1910.573486 1229.881958,1882.072754 
	C1346.665405,1811.850708 1463.435547,1741.606812 1580.208130,1671.366699 
	C1664.718018,1620.532959 1749.206787,1569.664307 1833.749512,1518.885620 
	C1845.629272,1511.750244 1851.371460,1501.152832 1852.478882,1487.713623 
	C1852.779175,1484.068604 1852.656982,1480.385376 1852.658081,1476.719604 
	C1852.703735,1314.068359 1852.790649,1151.417236 1852.763184,988.765991 
	C1852.745117,881.776489 1852.496948,774.786987 1852.517212,667.797485 
	C1852.520386,651.099915 1846.555542,638.290955 1831.988647,629.359985 
	C1781.717529,598.538757 1731.689575,567.320862 1681.410889,536.512085 
	C1618.629639,498.042175 1555.659302,459.880981 1492.829956,421.489410 
	C1417.207764,375.280853 1341.693604,328.895264 1266.046875,282.726990 
	C1204.620850,245.237839 1143.012939,208.046463 1081.652222,170.451263 
	C1075.117798,166.447693 1069.872559,165.799759 1063.410645,170.127319 
	C1053.451904,176.796631 1043.130005,182.930481 1032.881104,189.158386 
	C977.078613,223.067581 921.195251,256.843781 865.447510,290.842590 
	C801.728943,329.702606 738.129944,368.758728 674.467041,407.710022 
	C613.078674,445.269623 551.654663,482.770905 490.284912,520.360901 
	C445.676697,547.684143 401.116180,575.085266 356.566467,602.503845 
	C341.529266,611.758545 326.520416,621.063171 311.628204,630.548462 
	C298.773743,638.735840 290.710114,649.673523 291.227631,665.875366 
	C291.535492,675.514771 290.480988,685.189270 290.472809,694.848450 
	C290.386353,796.838684 290.346466,898.828918 290.374115,1000.819214 
	C290.412201,1141.137451 290.494324,1281.455566 290.624176,1421.773804 
	C290.643890,1443.093018 291.187592,1464.411987 291.180817,1485.731079 
	C291.175812,1501.508423 299.406189,1511.871094 312.167969,1519.601807 
	C368.304779,1553.607544 424.345612,1587.772827 480.588593,1621.602051 
	C536.830994,1655.430786 593.331726,1688.829590 649.611816,1722.596069 
	C725.314331,1768.015259 800.924866,1813.588013 876.553894,1859.129639 
	C932.204407,1892.640869 987.802124,1926.239746 1043.472168,1959.718384 
	C1052.589844,1965.201416 1061.960449,1970.263672 1072.691528,1975.511841 
z"/>
<path fill="#2EDFFA" opacity="1.000000" stroke="none" 
	d="
M1071.952881,1975.516113 
	C1061.960449,1970.263672 1052.589844,1965.201416 1043.472168,1959.718384 
	C987.802124,1926.239746 932.204407,1892.640869 876.553894,1859.129639 
	C800.924866,1813.588013 725.314331,1768.015259 649.611816,1722.596069 
	C593.331726,1688.829590 536.830994,1655.430786 480.588593,1621.602051 
	C424.345612,1587.772827 368.304779,1553.607544 312.167969,1519.601807 
	C299.406189,1511.871094 291.175812,1501.508423 291.180817,1485.731079 
	C291.187592,1464.411987 290.643890,1443.093018 290.624176,1421.773804 
	C290.494324,1281.455566 290.412201,1141.137451 290.374115,1000.819214 
	C290.346466,898.828918 290.386353,796.838684 290.472809,694.848450 
	C290.480988,685.189270 291.535492,675.514771 291.227631,665.875366 
	C290.710114,649.673523 298.773743,638.735840 311.628204,630.548462 
	C326.520416,621.063171 341.529266,611.758545 356.566467,602.503845 
	C401.116180,575.085266 445.676697,547.684143 490.284912,520.360901 
	C551.654663,482.770905 613.078674,445.269623 674.467041,407.710022 
	C738.129944,368.758728 801.728943,329.702606 865.447510,290.842590 
	C921.195251,256.843781 977.078613,223.067581 1032.881104,189.158386 
	C1043.130005,182.930481 1053.451904,176.796631 1063.410645,170.127319 
	C1069.872559,165.799759 1075.117798,166.447693 1081.652222,170.451263 
	C1143.012939,208.046463 1204.620850,245.237839 1266.046875,282.726990 
	C1341.693604,328.895264 1417.207764,375.280853 1492.829956,421.489410 
	C1555.659302,459.880981 1618.629639,498.042175 1681.410889,536.512085 
	C1731.689575,567.320862 1781.717529,598.538757 1831.988647,629.359985 
	C1846.555542,638.290955 1852.520386,651.099915 1852.517212,667.797485 
	C1852.496948,774.786987 1852.745117,881.776489 1852.763184,988.765991 
	C1852.790649,1151.417236 1852.703735,1314.068359 1852.658081,1476.719604 
	C1852.656982,1480.385376 1852.779175,1484.068604 1852.478882,1487.713623 
	C1851.371460,1501.152832 1845.629272,1511.750244 1833.749512,1518.885620 
	C1749.206787,1569.664307 1664.718018,1620.532959 1580.208130,1671.366699 
	C1463.435547,1741.606812 1346.665405,1811.850708 1229.881958,1882.072754 
	C1182.483887,1910.573486 1135.066040,1939.041382 1087.619873,1967.462036 
	C1082.775024,1970.364258 1077.673828,1972.838867 1071.952881,1975.516113 
M722.088013,431.031128 
	C676.292725,458.952667 630.460266,486.813507 584.710327,514.809204 
	C505.144958,563.497498 425.685547,612.359436 346.003448,660.855835 
	C338.633148,665.341614 335.431122,670.138062 335.508667,679.026917 
	C335.883698,722.011963 335.439117,765.003357 335.467041,807.992432 
	C335.520538,890.307495 335.751068,972.622437 335.808319,1054.937500 
	C335.871368,1145.584351 335.831177,1236.231079 335.818329,1326.877930 
	C335.811462,1375.199707 335.879333,1423.522217 335.617462,1471.842773 
	C335.578888,1478.957520 337.621735,1483.628662 344.061768,1487.124146 
	C354.593597,1492.840942 364.712402,1499.320068 374.993103,1505.498047 
	C440.097656,1544.620605 505.195526,1583.754272 570.301941,1622.873535 
	C629.129822,1658.220337 687.962097,1693.559814 746.799194,1728.891113 
	C815.059998,1769.881226 883.363342,1810.800659 951.579224,1851.865234 
	C988.965210,1874.370972 1026.268799,1897.015381 1063.457886,1919.844238 
	C1069.619385,1923.626465 1074.996460,1924.302246 1080.790771,1919.811401 
	C1081.836548,1919.000977 1083.065430,1918.427368 1084.206421,1917.738892 
	C1145.533569,1880.739014 1206.838379,1843.702026 1268.192993,1806.747925 
	C1331.546387,1768.589844 1394.953735,1730.521484 1458.327026,1692.396362 
	C1513.995972,1658.906006 1569.619263,1625.339722 1625.319824,1591.902100 
	C1682.440186,1557.611816 1739.531616,1523.270752 1796.902466,1489.403564 
	C1804.850586,1484.711670 1808.676392,1479.268921 1807.994141,1470.342896 
	C1807.892944,1469.018677 1808.012939,1467.678223 1808.015503,1466.345215 
	C1808.104248,1419.690796 1808.286499,1373.036499 1808.259644,1326.382080 
	C1808.197144,1218.080933 1807.937866,1109.779785 1807.941040,1001.478638 
	C1807.943604,912.501404 1808.227539,823.524170 1808.343994,734.546936 
	C1808.368774,715.551331 1808.079712,696.554626 1808.201660,677.560181 
	C1808.248779,670.205566 1805.876343,665.054382 1799.012817,661.428223 
	C1789.899170,656.613159 1781.271973,650.870972 1772.475830,645.462036 
	C1727.925903,618.067383 1683.443848,590.561768 1638.834473,563.264038 
	C1569.218994,520.664368 1499.495361,478.241455 1429.865112,435.665833 
	C1377.284790,403.515533 1324.838257,371.146118 1272.224365,339.051056 
	C1209.090088,300.538452 1145.763428,262.340332 1082.744141,223.641129 
	C1075.172974,218.991745 1069.625610,218.758636 1061.981445,223.528336 
	C1025.526489,246.275192 988.676025,268.387878 951.985107,290.757202 
	C875.750793,337.234924 799.528381,383.732208 722.088013,431.031128 
z"/>
<path fill="#0B1321" opacity="1.000000" stroke="none" 
	d="
M722.694580,430.626282 
	C799.528381,383.732208 875.750793,337.234924 951.985107,290.757202 
	C988.676025,268.387878 1025.526489,246.275192 1061.981445,223.528336 
	C1069.625610,218.758636 1075.172974,218.991745 1082.744141,223.641129 
	C1145.763428,262.340332 1209.090088,300.538452 1272.224365,339.051056 
	C1324.838257,371.146118 1377.284790,403.515533 1429.865112,435.665833 
	C1499.495361,478.241455 1569.218994,520.664368 1638.834473,563.264038 
	C1683.443848,590.561768 1727.925903,618.067383 1772.475830,645.462036 
	C1781.271973,650.870972 1789.899170,656.613159 1799.012817,661.428223 
	C1805.876343,665.054382 1808.248779,670.205566 1808.201660,677.560181 
	C1808.079712,696.554626 1808.368774,715.551331 1808.343994,734.546936 
	C1808.227539,823.524170 1807.943604,912.501404 1807.941040,1001.478638 
	C1807.937866,1109.779785 1808.197144,1218.080933 1808.259644,1326.382080 
	C1808.286499,1373.036499 1808.104248,1419.690796 1808.015503,1466.345215 
	C1808.012939,1467.678223 1807.892944,1469.018677 1807.994141,1470.342896 
	C1808.676392,1479.268921 1804.850586,1484.711670 1796.902466,1489.403564 
	C1739.531616,1523.270752 1682.440186,1557.611816 1625.319824,1591.902100 
	C1569.619263,1625.339722 1513.995972,1658.906006 1458.327026,1692.396362 
	C1394.953735,1730.521484 1331.546387,1768.589844 1268.192993,1806.747925 
	C1206.838379,1843.702026 1145.533569,1880.739014 1084.206421,1917.738892 
	C1083.065430,1918.427368 1081.836548,1919.000977 1080.790771,1919.811401 
	C1074.996460,1924.302246 1069.619385,1923.626465 1063.457886,1919.844238 
	C1026.268799,1897.015381 988.965210,1874.370972 951.579224,1851.865234 
	C883.363342,1810.800659 815.059998,1769.881226 746.799194,1728.891113 
	C687.962097,1693.559814 629.129822,1658.220337 570.301941,1622.873535 
	C505.195526,1583.754272 440.097656,1544.620605 374.993103,1505.498047 
	C364.712402,1499.320068 354.593597,1492.840942 344.061768,1487.124146 
	C337.621735,1483.628662 335.578888,1478.957520 335.617462,1471.842773 
	C335.879333,1423.522217 335.811462,1375.199707 335.818329,1326.877930 
	C335.831177,1236.231079 335.871368,1145.584351 335.808319,1054.937500 
	C335.751068,972.622437 335.520538,890.307495 335.467041,807.992432 
	C335.439117,765.003357 335.883698,722.011963 335.508667,679.026917 
	C335.431122,670.138062 338.633148,665.341614 346.003448,660.855835 
	C425.685547,612.359436 505.144958,563.497498 584.710327,514.809204 
	C630.460266,486.813507 676.292725,458.952667 722.694580,430.626282 
M1297.220459,1440.113770 
	C1257.651855,1458.492798 1218.050293,1476.801636 1178.544678,1495.315186 
	C1171.429932,1498.649414 1164.261719,1500.027466 1156.397095,1499.995850 
	C1103.078247,1499.781616 1049.754272,1499.497314 996.441589,1500.096191 
	C982.296753,1500.255127 969.804077,1497.041626 957.186768,1491.165039 
	C900.432922,1464.730713 843.454468,1438.778931 786.574341,1412.615479 
	C777.801758,1408.580444 769.177612,1404.219604 760.372437,1400.259521 
	C755.838135,1398.220215 753.813538,1395.078613 753.893066,1390.145630 
	C753.978821,1384.820557 754.050415,1379.448975 753.460083,1374.172363 
	C752.883545,1369.018555 749.991943,1367.271484 745.071655,1368.574829 
	C742.519043,1369.250854 740.086121,1370.439819 737.665344,1371.542603 
	C724.027710,1377.755127 710.509888,1384.244263 696.742371,1390.152344 
	C690.214905,1392.953369 687.126770,1397.399048 685.662964,1404.209839 
	C680.276367,1429.271851 674.326904,1454.212280 668.817749,1479.248657 
	C661.093567,1514.352173 653.476807,1549.480103 646.023010,1584.641968 
	C643.645691,1595.856689 644.120239,1596.179199 654.136108,1601.959229 
	C676.927551,1615.111694 699.672363,1628.344727 722.467712,1641.490234 
	C790.280457,1680.596191 858.339111,1719.284424 925.769897,1759.037964 
	C942.831604,1769.096558 959.705139,1774.332153 979.530457,1772.746948 
	C997.221680,1771.332275 994.907959,1773.269775 997.627808,1756.126831 
	C1001.639038,1730.844238 1004.061646,1705.312256 1007.337830,1679.909424 
	C1011.678223,1646.255493 1016.153015,1612.618530 1020.657288,1578.985962 
	C1021.571960,1572.156372 1022.874634,1565.378784 1023.980408,1558.686401 
	C1056.359131,1558.686401 1087.833862,1558.686401 1119.310913,1558.686401 
	C1119.854004,1561.057373 1120.344604,1562.652954 1120.574097,1564.285034 
	C1122.750366,1579.768311 1125.002808,1595.242310 1127.002319,1610.748779 
	C1131.386841,1644.754517 1135.626343,1678.778931 1139.945923,1712.792969 
	C1142.084473,1729.632690 1144.155518,1746.482300 1146.481323,1763.296265 
	C1147.635742,1771.642578 1148.968994,1772.721802 1157.452026,1772.805298 
	C1164.444824,1772.874268 1171.476685,1772.009766 1178.429199,1772.478394 
	C1189.983765,1773.257324 1199.716431,1769.178711 1209.451172,1763.528687 
	C1243.157349,1743.966064 1277.213257,1725.005981 1310.931763,1705.463989 
	C1370.592407,1670.886963 1430.113403,1636.068604 1489.666626,1601.306519 
	C1499.239624,1595.718506 1499.335083,1595.461426 1496.950195,1584.531860 
	C1483.747070,1524.023315 1470.408447,1463.544189 1457.368408,1403.000610 
	C1455.959106,1396.457153 1452.915405,1392.388916 1446.833374,1389.754517 
	C1433.693848,1384.063599 1420.747681,1377.927612 1407.695435,1372.033569 
	C1404.969727,1370.802612 1402.204712,1369.517822 1399.322754,1368.802002 
	C1393.249146,1367.293579 1390.479248,1369.328125 1390.033081,1375.485229 
	C1389.744507,1379.467651 1389.656616,1383.483032 1389.786987,1387.473511 
	C1390.020020,1394.607178 1387.128296,1399.067749 1380.349243,1402.102051 
	C1352.999878,1414.343750 1325.853149,1427.038208 1297.220459,1440.113770 
M1222.986084,1417.962646 
	C1261.056274,1399.522949 1299.136719,1381.104370 1337.192627,1362.635010 
	C1358.463379,1352.311890 1379.699707,1341.917725 1400.939209,1331.530396 
	C1409.838989,1327.177979 1410.639038,1325.609253 1408.680664,1316.007935 
	C1406.484863,1305.243774 1404.202759,1294.496948 1401.922729,1283.750244 
	C1391.419189,1234.243652 1380.795166,1184.762085 1370.515503,1135.209106 
	C1369.075928,1128.270142 1365.767456,1123.890625 1359.431885,1121.099609 
	C1348.462280,1116.267456 1337.653564,1111.070923 1326.726685,1106.139282 
	C1323.096069,1104.500610 1319.415405,1102.753296 1315.570679,1101.858765 
	C1309.528076,1100.452637 1306.775879,1102.636108 1306.207520,1108.796875 
	C1305.902466,1112.102295 1305.735596,1115.509766 1306.183594,1118.778320 
	C1307.368530,1127.425415 1303.495117,1131.773682 1295.650391,1135.287354 
	C1257.370728,1152.432983 1219.374878,1170.211914 1181.251831,1187.708252 
	C1167.913208,1193.829712 1154.621582,1198.936401 1139.236450,1198.717285 
	C1093.926514,1198.071899 1048.599854,1198.368530 1003.282043,1198.652588 
	C992.654053,1198.719238 982.949341,1196.388184 973.398926,1191.983032 
	C934.098145,1173.855103 894.743835,1155.841797 855.329956,1137.961060 
	C835.340698,1128.892578 837.826843,1132.627319 837.553101,1111.230469 
	C837.420532,1100.868774 834.909058,1099.002197 825.604614,1103.003784 
	C812.146118,1108.791870 798.939575,1115.176880 785.402588,1120.767456 
	C777.390259,1124.076416 773.868347,1129.814941 772.164978,1137.967773 
	C765.223511,1171.191162 757.823914,1204.318359 750.747131,1237.513916 
	C745.264099,1263.233276 739.931763,1288.985718 734.691528,1314.755737 
	C732.543152,1325.320923 733.589966,1327.233765 742.331482,1331.477783 
	C813.935669,1366.241211 885.646973,1400.786865 957.056702,1435.945190 
	C971.605225,1443.108032 986.278198,1446.324341 1002.242188,1445.107544 
	C1009.620605,1444.545044 1010.718384,1444.067749 1011.825073,1436.514893 
	C1013.416077,1425.656982 1014.675720,1414.748657 1015.967773,1403.848999 
	C1018.395142,1383.371948 1020.736084,1362.884399 1023.128662,1342.403076 
	C1025.404297,1322.923218 1027.638062,1303.438354 1030.014648,1283.970703 
	C1031.124878,1274.875732 1031.609497,1265.633301 1034.406860,1256.611084 
	C1059.857422,1256.231323 1084.366089,1254.843506 1109.580688,1256.733643 
	C1111.080322,1266.883911 1112.644897,1275.993652 1113.743408,1285.159180 
	C1118.888428,1328.092163 1123.894043,1371.041992 1128.977783,1413.982300 
	C1129.916138,1421.908203 1130.964111,1429.821411 1132.003662,1437.734985 
	C1132.453857,1441.162720 1133.270264,1444.933105 1137.492432,1444.875732 
	C1149.999512,1444.705811 1162.692871,1447.156128 1174.759766,1441.030518 
	C1190.197754,1433.193848 1205.965210,1426.005981 1222.986084,1417.962646 
M1266.097412,1087.204834 
	C1285.878296,1077.613647 1305.669556,1068.044067 1325.434937,1058.421143 
	C1333.810303,1054.343628 1334.252441,1053.297363 1332.594360,1044.685791 
	C1324.979980,1005.140991 1317.437988,965.582092 1309.787842,926.044189 
	C1306.752441,910.357239 1303.300293,894.748535 1300.446533,879.030029 
	C1299.192383,872.122253 1295.800537,867.592468 1289.419434,864.821472 
	C1283.619751,862.302917 1278.045410,859.270447 1272.319336,856.575562 
	C1267.803589,854.450317 1263.330933,852.126831 1258.618164,850.553101 
	C1252.424683,848.484863 1249.061646,850.822937 1248.328613,857.353149 
	C1247.958740,860.646851 1247.969849,864.029541 1248.233887,867.338013 
	C1248.713501,873.349976 1246.522339,877.151184 1240.853882,879.877075 
	C1206.347412,896.470947 1172.037476,913.474487 1137.492432,929.986450 
	C1132.864624,932.198425 1127.286865,933.354553 1122.137329,933.391663 
	C1089.147827,933.629639 1056.152344,933.609436 1023.165588,933.174194 
	C1017.403992,933.098145 1011.229065,931.601746 1006.001587,929.148926 
	C974.347412,914.296021 943.162048,898.420227 911.276184,884.096863 
	C899.368652,878.747986 893.326355,872.561401 895.003540,858.832825 
	C896.192871,849.097595 892.091675,847.157654 882.829224,851.567322 
	C873.208679,856.147583 863.797668,861.176758 854.109985,865.604675 
	C847.371216,868.684570 843.982910,873.761353 842.615295,880.797485 
	C838.487732,902.031616 834.153870,923.225525 829.996033,944.453918 
	C823.535767,977.437744 817.181030,1010.442200 810.722351,1043.426392 
	C808.898499,1052.740479 809.380127,1053.976196 818.026672,1058.142700 
	C873.838318,1085.036743 929.725098,1111.776367 985.416748,1138.916504 
	C995.020081,1143.596558 1004.731445,1145.786865 1015.237549,1145.537476 
	C1026.585327,1145.268188 1028.466187,1143.852661 1029.803345,1132.451172 
	C1033.988892,1096.764893 1037.971069,1061.054810 1042.123901,1025.364624 
	C1043.461792,1013.866699 1045.084351,1002.401855 1046.628662,990.521362 
	C1063.661743,990.521362 1079.835938,990.521362 1096.310913,990.521362 
	C1096.938477,992.298279 1097.785034,993.784729 1097.968384,995.348999 
	C1101.333374,1024.055542 1104.620972,1052.771118 1107.920288,1081.485352 
	C1109.970581,1099.329468 1111.948242,1117.182129 1114.088379,1135.015381 
	C1115.011719,1142.709961 1117.077515,1145.303833 1123.648804,1145.432007 
	C1134.955566,1145.652710 1146.101929,1145.188477 1156.754028,1139.957764 
	C1192.631348,1122.339722 1228.716919,1105.145752 1266.097412,1087.204834 
M1154.772827,569.026245 
	C1154.784790,563.029480 1154.368652,556.992981 1154.920410,551.046326 
	C1155.565674,544.093018 1152.641846,539.770569 1146.903076,536.412048 
	C1124.773804,523.461182 1102.640381,510.511108 1080.727417,497.200439 
	C1074.849854,493.630219 1070.175049,493.539612 1064.220215,497.189056 
	C1042.077881,510.759399 1019.707397,523.964661 997.244202,536.999634 
	C991.672913,540.232544 989.414124,544.229126 989.448792,550.659912 
	C989.631836,584.637878 989.456116,618.617554 989.451904,652.596680 
	C989.449951,668.252075 989.648132,683.908020 989.558594,699.562561 
	C989.529236,704.690918 991.158691,708.285889 995.791931,711.008301 
	C1018.758789,724.503174 1041.629761,738.163330 1064.427856,751.941650 
	C1069.621826,755.080627 1074.118408,754.918762 1079.285767,751.796631 
	C1100.947021,738.708862 1122.549683,725.495422 1144.635376,713.153870 
	C1152.450806,708.786560 1155.049072,703.670105 1154.962036,694.945679 
	C1154.550171,653.639465 1154.771851,612.326965 1154.772827,569.026245 
M1205.573120,856.482483 
	C1214.732422,853.626099 1219.555908,847.948547 1218.000732,837.862915 
	C1217.650146,835.589844 1218.265869,833.177795 1218.003784,830.879150 
	C1217.176514,823.625122 1220.464355,819.396545 1226.693481,815.768555 
	C1243.674438,805.878479 1260.168335,795.155334 1277.053101,785.094482 
	C1283.160767,781.455139 1286.150269,776.622314 1286.044189,769.636475 
	C1285.988770,765.972107 1286.131470,762.305298 1286.126343,758.639648 
	C1286.046753,701.317810 1285.966309,643.995911 1285.866699,586.674072 
	C1285.824829,562.599731 1284.385620,560.148010 1262.410889,551.014709 
	C1259.103760,549.640137 1254.438110,549.671875 1250.999023,550.829773 
	C1241.152588,554.144836 1238.792603,558.023560 1238.785889,568.769409 
	C1238.752441,622.758789 1238.678589,676.748657 1238.922485,730.737000 
	C1238.956299,738.199646 1236.864258,742.875305 1230.023438,746.728088 
	C1201.002441,763.072571 1172.338989,780.051208 1143.511108,796.740112 
	C1124.036865,808.014221 1126.052368,804.052124 1125.993164,826.745239 
	C1125.950562,843.075256 1125.875122,859.406860 1126.055908,875.735107 
	C1126.147217,883.979736 1127.648560,885.881897 1135.976929,886.024353 
	C1141.054932,886.111145 1146.589600,885.032043 1151.191895,882.903931 
	C1169.026367,874.657227 1186.569092,865.779724 1205.573120,856.482483 
M935.773926,855.184509 
	C954.352539,864.181946 972.914917,873.213379 991.524048,882.147156 
	C995.110535,883.868896 998.758179,885.743835 1002.589844,886.620422 
	C1013.171265,889.041321 1017.839661,885.480164 1017.970581,874.730103 
	C1018.197754,856.077881 1017.556030,837.402710 1018.256287,818.773926 
	C1018.602539,809.562073 1015.499512,804.264526 1007.462769,799.776917 
	C975.774719,782.083008 944.491272,763.665833 912.933289,745.735962 
	C907.820435,742.830994 904.668274,739.472534 904.866333,733.307434 
	C905.026489,728.323669 904.552429,723.323181 904.548401,718.330017 
	C904.507324,667.690186 904.543274,617.050293 904.466675,566.410583 
	C904.446228,552.874817 892.499146,545.675232 880.488586,551.860840 
	C875.458130,554.451538 870.586182,557.348206 865.611450,560.049194 
	C860.455261,562.848694 858.189880,566.827454 858.205811,572.988037 
	C858.376282,638.952881 858.366882,704.918579 858.197815,770.883484 
	C858.181213,777.369812 860.625488,781.321533 866.114075,784.536987 
	C880.476562,792.951355 894.668396,801.666260 908.776123,810.504211 
	C929.785889,823.665894 925.774658,816.477539 925.806091,840.486145 
	C925.815308,847.514526 928.080872,851.942505 935.773926,855.184509 
z"/>
<path fill="#2FE2FD" opacity="1.000000" stroke="none" 
	d="
M1297.926025,1439.839600 
	C1325.853149,1427.038208 1352.999878,1414.343750 1380.349243,1402.102051 
	C1387.128296,1399.067749 1390.020020,1394.607178 1389.786987,1387.473511 
	C1389.656616,1383.483032 1389.744507,1379.467651 1390.033081,1375.485229 
	C1390.479248,1369.328125 1393.249146,1367.293579 1399.322754,1368.802002 
	C1402.204712,1369.517822 1404.969727,1370.802612 1407.695435,1372.033569 
	C1420.747681,1377.927612 1433.693848,1384.063599 1446.833374,1389.754517 
	C1452.915405,1392.388916 1455.959106,1396.457153 1457.368408,1403.000610 
	C1470.408447,1463.544189 1483.747070,1524.023315 1496.950195,1584.531860 
	C1499.335083,1595.461426 1499.239624,1595.718506 1489.666626,1601.306519 
	C1430.113403,1636.068604 1370.592407,1670.886963 1310.931763,1705.463989 
	C1277.213257,1725.005981 1243.157349,1743.966064 1209.451172,1763.528687 
	C1199.716431,1769.178711 1189.983765,1773.257324 1178.429199,1772.478394 
	C1171.476685,1772.009766 1164.444824,1772.874268 1157.452026,1772.805298 
	C1148.968994,1772.721802 1147.635742,1771.642578 1146.481323,1763.296265 
	C1144.155518,1746.482300 1142.084473,1729.632690 1139.945923,1712.792969 
	C1135.626343,1678.778931 1131.386841,1644.754517 1127.002319,1610.748779 
	C1125.002808,1595.242310 1122.750366,1579.768311 1120.574097,1564.285034 
	C1120.344604,1562.652954 1119.854004,1561.057373 1119.310913,1558.686401 
	C1087.833862,1558.686401 1056.359131,1558.686401 1023.980408,1558.686401 
	C1022.874634,1565.378784 1021.571960,1572.156372 1020.657288,1578.985962 
	C1016.153015,1612.618530 1011.678223,1646.255493 1007.337830,1679.909424 
	C1004.061646,1705.312256 1001.639038,1730.844238 997.627808,1756.126831 
	C994.907959,1773.269775 997.221680,1771.332275 979.530457,1772.746948 
	C959.705139,1774.332153 942.831604,1769.096558 925.769897,1759.037964 
	C858.339111,1719.284424 790.280457,1680.596191 722.467712,1641.490234 
	C699.672363,1628.344727 676.927551,1615.111694 654.136108,1601.959229 
	C644.120239,1596.179199 643.645691,1595.856689 646.023010,1584.641968 
	C653.476807,1549.480103 661.093567,1514.352173 668.817749,1479.248657 
	C674.326904,1454.212280 680.276367,1429.271851 685.662964,1404.209839 
	C687.126770,1397.399048 690.214905,1392.953369 696.742371,1390.152344 
	C710.509888,1384.244263 724.027710,1377.755127 737.665344,1371.542603 
	C740.086121,1370.439819 742.519043,1369.250854 745.071655,1368.574829 
	C749.991943,1367.271484 752.883545,1369.018555 753.460083,1374.172363 
	C754.050415,1379.448975 753.978821,1384.820557 753.893066,1390.145630 
	C753.813538,1395.078613 755.838135,1398.220215 760.372437,1400.259521 
	C769.177612,1404.219604 777.801758,1408.580444 786.574341,1412.615479 
	C843.454468,1438.778931 900.432922,1464.730713 957.186768,1491.165039 
	C969.804077,1497.041626 982.296753,1500.255127 996.441589,1500.096191 
	C1049.754272,1499.497314 1103.078247,1499.781616 1156.397095,1499.995850 
	C1164.261719,1500.027466 1171.429932,1498.649414 1178.544678,1495.315186 
	C1218.050293,1476.801636 1257.651855,1458.492798 1297.926025,1439.839600 
z"/>
<path fill="#2FE2FD" opacity="1.000000" stroke="none" 
	d="
M1222.288330,1418.250488 
	C1205.965210,1426.005981 1190.197754,1433.193848 1174.759766,1441.030518 
	C1162.692871,1447.156128 1149.999512,1444.705811 1137.492432,1444.875732 
	C1133.270264,1444.933105 1132.453857,1441.162720 1132.003662,1437.734985 
	C1130.964111,1429.821411 1129.916138,1421.908203 1128.977783,1413.982300 
	C1123.894043,1371.041992 1118.888428,1328.092163 1113.743408,1285.159180 
	C1112.644897,1275.993652 1111.080322,1266.883911 1109.580688,1256.733643 
	C1084.366089,1254.843506 1059.857422,1256.231323 1034.406860,1256.611084 
	C1031.609497,1265.633301 1031.124878,1274.875732 1030.014648,1283.970703 
	C1027.638062,1303.438354 1025.404297,1322.923218 1023.128662,1342.403076 
	C1020.736084,1362.884399 1018.395142,1383.371948 1015.967773,1403.848999 
	C1014.675720,1414.748657 1013.416077,1425.656982 1011.825073,1436.514893 
	C1010.718384,1444.067749 1009.620605,1444.545044 1002.242188,1445.107544 
	C986.278198,1446.324341 971.605225,1443.108032 957.056702,1435.945190 
	C885.646973,1400.786865 813.935669,1366.241211 742.331482,1331.477783 
	C733.589966,1327.233765 732.543152,1325.320923 734.691528,1314.755737 
	C739.931763,1288.985718 745.264099,1263.233276 750.747131,1237.513916 
	C757.823914,1204.318359 765.223511,1171.191162 772.164978,1137.967773 
	C773.868347,1129.814941 777.390259,1124.076416 785.402588,1120.767456 
	C798.939575,1115.176880 812.146118,1108.791870 825.604614,1103.003784 
	C834.909058,1099.002197 837.420532,1100.868774 837.553101,1111.230469 
	C837.826843,1132.627319 835.340698,1128.892578 855.329956,1137.961060 
	C894.743835,1155.841797 934.098145,1173.855103 973.398926,1191.983032 
	C982.949341,1196.388184 992.654053,1198.719238 1003.282043,1198.652588 
	C1048.599854,1198.368530 1093.926514,1198.071899 1139.236450,1198.717285 
	C1154.621582,1198.936401 1167.913208,1193.829712 1181.251831,1187.708252 
	C1219.374878,1170.211914 1257.370728,1152.432983 1295.650391,1135.287354 
	C1303.495117,1131.773682 1307.368530,1127.425415 1306.183594,1118.778320 
	C1305.735596,1115.509766 1305.902466,1112.102295 1306.207520,1108.796875 
	C1306.775879,1102.636108 1309.528076,1100.452637 1315.570679,1101.858765 
	C1319.415405,1102.753296 1323.096069,1104.500610 1326.726685,1106.139282 
	C1337.653564,1111.070923 1348.462280,1116.267456 1359.431885,1121.099609 
	C1365.767456,1123.890625 1369.075928,1128.270142 1370.515503,1135.209106 
	C1380.795166,1184.762085 1391.419189,1234.243652 1401.922729,1283.750244 
	C1404.202759,1294.496948 1406.484863,1305.243774 1408.680664,1316.007935 
	C1410.639038,1325.609253 1409.838989,1327.177979 1400.939209,1331.530396 
	C1379.699707,1341.917725 1358.463379,1352.311890 1337.192627,1362.635010 
	C1299.136719,1381.104370 1261.056274,1399.522949 1222.288330,1418.250488 
z"/>
<path fill="#2FE2FC" opacity="1.000000" stroke="none" 
	d="
M1265.410156,1087.497192 
	C1228.716919,1105.145752 1192.631348,1122.339722 1156.754028,1139.957764 
	C1146.101929,1145.188477 1134.955566,1145.652710 1123.648804,1145.432007 
	C1117.077515,1145.303833 1115.011719,1142.709961 1114.088379,1135.015381 
	C1111.948242,1117.182129 1109.970581,1099.329468 1107.920288,1081.485352 
	C1104.620972,1052.771118 1101.333374,1024.055542 1097.968384,995.348999 
	C1097.785034,993.784729 1096.938477,992.298279 1096.310913,990.521362 
	C1079.835938,990.521362 1063.661743,990.521362 1046.628662,990.521362 
	C1045.084351,1002.401855 1043.461792,1013.866699 1042.123901,1025.364624 
	C1037.971069,1061.054810 1033.988892,1096.764893 1029.803345,1132.451172 
	C1028.466187,1143.852661 1026.585327,1145.268188 1015.237549,1145.537476 
	C1004.731445,1145.786865 995.020081,1143.596558 985.416748,1138.916504 
	C929.725098,1111.776367 873.838318,1085.036743 818.026672,1058.142700 
	C809.380127,1053.976196 808.898499,1052.740479 810.722351,1043.426392 
	C817.181030,1010.442200 823.535767,977.437744 829.996033,944.453918 
	C834.153870,923.225525 838.487732,902.031616 842.615295,880.797485 
	C843.982910,873.761353 847.371216,868.684570 854.109985,865.604675 
	C863.797668,861.176758 873.208679,856.147583 882.829224,851.567322 
	C892.091675,847.157654 896.192871,849.097595 895.003540,858.832825 
	C893.326355,872.561401 899.368652,878.747986 911.276184,884.096863 
	C943.162048,898.420227 974.347412,914.296021 1006.001587,929.148926 
	C1011.229065,931.601746 1017.403992,933.098145 1023.165588,933.174194 
	C1056.152344,933.609436 1089.147827,933.629639 1122.137329,933.391663 
	C1127.286865,933.354553 1132.864624,932.198425 1137.492432,929.986450 
	C1172.037476,913.474487 1206.347412,896.470947 1240.853882,879.877075 
	C1246.522339,877.151184 1248.713501,873.349976 1248.233887,867.338013 
	C1247.969849,864.029541 1247.958740,860.646851 1248.328613,857.353149 
	C1249.061646,850.822937 1252.424683,848.484863 1258.618164,850.553101 
	C1263.330933,852.126831 1267.803589,854.450317 1272.319336,856.575562 
	C1278.045410,859.270447 1283.619751,862.302917 1289.419434,864.821472 
	C1295.800537,867.592468 1299.192383,872.122253 1300.446533,879.030029 
	C1303.300293,894.748535 1306.752441,910.357239 1309.787842,926.044189 
	C1317.437988,965.582092 1324.979980,1005.140991 1332.594360,1044.685791 
	C1334.252441,1053.297363 1333.810303,1054.343628 1325.434937,1058.421143 
	C1305.669556,1068.044067 1285.878296,1077.613647 1265.410156,1087.497192 
z"/>
<path fill="#2FE2FD" opacity="1.000000" stroke="none" 
	d="
M1154.770264,570.021484 
	C1154.771851,612.326965 1154.550171,653.639465 1154.962036,694.945679 
	C1155.049072,703.670105 1152.450806,708.786560 1144.635376,713.153870 
	C1122.549683,725.495422 1100.947021,738.708862 1079.285767,751.796631 
	C1074.118408,754.918762 1069.621826,755.080627 1064.427856,751.941650 
	C1041.629761,738.163330 1018.758789,724.503174 995.791931,711.008301 
	C991.158691,708.285889 989.529236,704.690918 989.558594,699.562561 
	C989.648132,683.908020 989.449951,668.252075 989.451904,652.596680 
	C989.456116,618.617554 989.631836,584.637878 989.448792,550.659912 
	C989.414124,544.229126 991.672913,540.232544 997.244202,536.999634 
	C1019.707397,523.964661 1042.077881,510.759399 1064.220215,497.189056 
	C1070.175049,493.539612 1074.849854,493.630219 1080.727417,497.200439 
	C1102.640381,510.511108 1124.773804,523.461182 1146.903076,536.412048 
	C1152.641846,539.770569 1155.565674,544.093018 1154.920410,551.046326 
	C1154.368652,556.992981 1154.784790,563.029480 1154.770264,570.021484 
z"/>
<path fill="#2EDFFA" opacity="1.000000" stroke="none" 
	d="
M1204.896729,856.809814 
	C1186.569092,865.779724 1169.026367,874.657227 1151.191895,882.903931 
	C1146.589600,885.032043 1141.054932,886.111145 1135.976929,886.024353 
	C1127.648560,885.881897 1126.147217,883.979736 1126.055908,875.735107 
	C1125.875122,859.406860 1125.950562,843.075256 1125.993164,826.745239 
	C1126.052368,804.052124 1124.036865,808.014221 1143.511108,796.740112 
	C1172.338989,780.051208 1201.002441,763.072571 1230.023438,746.728088 
	C1236.864258,742.875305 1238.956299,738.199646 1238.922485,730.737000 
	C1238.678589,676.748657 1238.752441,622.758789 1238.785889,568.769409 
	C1238.792603,558.023560 1241.152588,554.144836 1250.999023,550.829773 
	C1254.438110,549.671875 1259.103760,549.640137 1262.410889,551.014709 
	C1284.385620,560.148010 1285.824829,562.599731 1285.866699,586.674072 
	C1285.966309,643.995911 1286.046753,701.317810 1286.126343,758.639648 
	C1286.131470,762.305298 1285.988770,765.972107 1286.044189,769.636475 
	C1286.150269,776.622314 1283.160767,781.455139 1277.053101,785.094482 
	C1260.168335,795.155334 1243.674438,805.878479 1226.693481,815.768555 
	C1220.464355,819.396545 1217.176514,823.625122 1218.003784,830.879150 
	C1218.265869,833.177795 1217.650146,835.589844 1218.000732,837.862915 
	C1219.555908,847.948547 1214.732422,853.626099 1204.896729,856.809814 
z"/>
<path fill="#2EE0FB" opacity="1.000000" stroke="none" 
	d="
M935.096313,854.833679 
	C928.080872,851.942505 925.815308,847.514526 925.806091,840.486145 
	C925.774658,816.477539 929.785889,823.665894 908.776123,810.504211 
	C894.668396,801.666260 880.476562,792.951355 866.114075,784.536987 
	C860.625488,781.321533 858.181213,777.369812 858.197815,770.883484 
	C858.366882,704.918579 858.376282,638.952881 858.205811,572.988037 
	C858.189880,566.827454 860.455261,562.848694 865.611450,560.049194 
	C870.586182,557.348206 875.458130,554.451538 880.488586,551.860840 
	C892.499146,545.675232 904.446228,552.874817 904.466675,566.410583 
	C904.543274,617.050293 904.507324,667.690186 904.548401,718.330017 
	C904.552429,723.323181 905.026489,728.323669 904.866333,733.307434 
	C904.668274,739.472534 907.820435,742.830994 912.933289,745.735962 
	C944.491272,763.665833 975.774719,782.083008 1007.462769,799.776917 
	C1015.499512,804.264526 1018.602539,809.562073 1018.256287,818.773926 
	C1017.556030,837.402710 1018.197754,856.077881 1017.970581,874.730103 
	C1017.839661,885.480164 1013.171265,889.041321 1002.589844,886.620422 
	C998.758179,885.743835 995.110535,883.868896 991.524048,882.147156 
	C972.914917,873.213379 954.352539,864.181946 935.096313,854.833679 
z"/>
</svg>